<?xml version="1.0" encoding="UTF-8"?>
<svg xmlns="http://www.w3.org/2000/svg" xmlns:xlink="http://www.w3.org/1999/xlink" width="106px" height="100px" viewBox="0 0 106 100" version="1.1">
<defs>
<linearGradient id="linear0" gradientUnits="userSpaceOnUse" x1="0.5" y1="0" x2="16.5002" y2="0.000206102" gradientTransform="matrix(6.235294,0,0,6.25,0,0)">
<stop offset="0.0001" style="stop-color:rgb(89.803922%,61.176471%,100%);stop-opacity:1;"/>
<stop offset="0.5001" style="stop-color:rgb(72.941176%,61.176471%,100%);stop-opacity:1;"/>
<stop offset="1" style="stop-color:rgb(61.176471%,69.803922%,100%);stop-opacity:1;"/>
</linearGradient>
<linearGradient id="linear1" gradientUnits="userSpaceOnUse" x1="0.5" y1="0" x2="16.5002" y2="0.000206102" gradientTransform="matrix(6.235294,0,0,6.25,0,0)">
<stop offset="0.0001" style="stop-color:rgb(89.803922%,61.176471%,100%);stop-opacity:1;"/>
<stop offset="0.5001" style="stop-color:rgb(72.941176%,61.176471%,100%);stop-opacity:1;"/>
<stop offset="1" style="stop-color:rgb(61.176471%,69.803922%,100%);stop-opacity:1;"/>
</linearGradient>
<linearGradient id="linear2" gradientUnits="userSpaceOnUse" x1="0.5" y1="0" x2="16.5002" y2="0.000206102" gradientTransform="matrix(6.235294,0,0,6.25,0,0)">
<stop offset="0.0001" style="stop-color:rgb(89.803922%,61.176471%,100%);stop-opacity:1;"/>
<stop offset="0.5001" style="stop-color:rgb(72.941176%,61.176471%,100%);stop-opacity:1;"/>
<stop offset="1" style="stop-color:rgb(61.176471%,69.803922%,100%);stop-opacity:1;"/>
</linearGradient>
</defs>
<g id="surface1">
<path style=" stroke:none;fill-rule:nonzero;fill:url(#linear0);" d="M 35.714844 31.617188 C 36.511719 29.460938 39.558594 29.460938 40.355469 31.617188 L 48.328125 53.21875 C 48.578125 53.898438 49.113281 54.429688 49.789062 54.683594 L 71.339844 62.675781 C 73.492188 63.472656 73.492188 66.527344 71.339844 67.324219 L 49.789062 75.316406 C 49.113281 75.570312 48.578125 76.105469 48.328125 76.78125 L 40.355469 98.382812 C 39.558594 100.539062 36.511719 100.539062 35.714844 98.382812 L 27.742188 76.78125 C 27.492188 76.105469 26.957031 75.570312 26.28125 75.316406 L 4.734375 67.324219 C 2.578125 66.527344 2.578125 63.472656 4.734375 62.675781 L 26.28125 54.683594 C 26.957031 54.429688 27.492188 53.898438 27.742188 53.21875 Z M 35.714844 31.617188 "/>
<path style=" stroke:none;fill-rule:nonzero;fill:rgb(100%,100%,100%);fill-opacity:0.4;" d="M 35.714844 31.617188 C 36.511719 29.460938 39.558594 29.460938 40.355469 31.617188 L 48.328125 53.21875 C 48.578125 53.898438 49.113281 54.429688 49.789062 54.683594 L 71.339844 62.675781 C 73.492188 63.472656 73.492188 66.527344 71.339844 67.324219 L 49.789062 75.316406 C 49.113281 75.570312 48.578125 76.105469 48.328125 76.78125 L 40.355469 98.382812 C 39.558594 100.539062 36.511719 100.539062 35.714844 98.382812 L 27.742188 76.78125 C 27.492188 76.105469 26.957031 75.570312 26.28125 75.316406 L 4.734375 67.324219 C 2.578125 66.527344 2.578125 63.472656 4.734375 62.675781 L 26.28125 54.683594 C 26.957031 54.429688 27.492188 53.898438 27.742188 53.21875 Z M 35.714844 31.617188 "/>
<path style=" stroke:none;fill-rule:nonzero;fill:url(#linear1);" d="M 60.683594 1.601562 C 61.46875 -0.535156 64.480469 -0.535156 65.269531 1.601562 L 67.871094 8.644531 C 68.117188 9.316406 68.648438 9.84375 69.316406 10.09375 L 76.34375 12.699219 C 78.472656 13.492188 78.472656 16.507812 76.34375 17.300781 L 69.316406 19.90625 C 68.648438 20.15625 68.117188 20.683594 67.871094 21.355469 L 65.269531 28.398438 C 64.480469 30.535156 61.46875 30.535156 60.683594 28.398438 L 58.082031 21.355469 C 57.835938 20.683594 57.304688 20.15625 56.636719 19.90625 L 49.609375 17.300781 C 47.480469 16.507812 47.480469 13.492188 49.609375 12.699219 L 56.636719 10.09375 C 57.304688 9.84375 57.835938 9.316406 58.082031 8.644531 Z M 60.683594 1.601562 "/>
<path style=" stroke:none;fill-rule:nonzero;fill:rgb(100%,100%,100%);fill-opacity:0.4;" d="M 60.683594 1.601562 C 61.46875 -0.535156 64.480469 -0.535156 65.269531 1.601562 L 67.871094 8.644531 C 68.117188 9.316406 68.648438 9.84375 69.316406 10.09375 L 76.34375 12.699219 C 78.472656 13.492188 78.472656 16.507812 76.34375 17.300781 L 69.316406 19.90625 C 68.648438 20.15625 68.117188 20.683594 67.871094 21.355469 L 65.269531 28.398438 C 64.480469 30.535156 61.46875 30.535156 60.683594 28.398438 L 58.082031 21.355469 C 57.835938 20.683594 57.304688 20.15625 56.636719 19.90625 L 49.609375 17.300781 C 47.480469 16.507812 47.480469 13.492188 49.609375 12.699219 L 56.636719 10.09375 C 57.304688 9.84375 57.835938 9.316406 58.082031 8.644531 Z M 60.683594 1.601562 "/>
<path style=" stroke:none;fill-rule:nonzero;fill:url(#linear2);" d="M 91.375 36.066406 C 91.902344 34.644531 93.910156 34.644531 94.433594 36.066406 L 96.167969 40.761719 C 96.335938 41.210938 96.6875 41.5625 97.132812 41.730469 L 101.816406 43.46875 C 103.238281 43.992188 103.238281 46.007812 101.816406 46.53125 L 97.132812 48.269531 C 96.6875 48.4375 96.335938 48.789062 96.167969 49.238281 L 94.433594 53.933594 C 93.910156 55.355469 91.902344 55.355469 91.375 53.933594 L 89.644531 49.238281 C 89.476562 48.789062 89.125 48.4375 88.679688 48.269531 L 83.992188 46.53125 C 82.574219 46.007812 82.574219 43.992188 83.992188 43.46875 L 88.679688 41.730469 C 89.125 41.5625 89.476562 41.210938 89.644531 40.761719 Z M 91.375 36.066406 "/>
<path style=" stroke:none;fill-rule:nonzero;fill:rgb(100%,100%,100%);fill-opacity:0.4;" d="M 91.375 36.066406 C 91.902344 34.644531 93.910156 34.644531 94.433594 36.066406 L 96.167969 40.761719 C 96.335938 41.210938 96.6875 41.5625 97.132812 41.730469 L 101.816406 43.46875 C 103.238281 43.992188 103.238281 46.007812 101.816406 46.53125 L 97.132812 48.269531 C 96.6875 48.4375 96.335938 48.789062 96.167969 49.238281 L 94.433594 53.933594 C 93.910156 55.355469 91.902344 55.355469 91.375 53.933594 L 89.644531 49.238281 C 89.476562 48.789062 89.125 48.4375 88.679688 48.269531 L 83.992188 46.53125 C 82.574219 46.007812 82.574219 43.992188 83.992188 43.46875 L 88.679688 41.730469 C 89.125 41.5625 89.476562 41.210938 89.644531 40.761719 Z M 91.375 36.066406 "/>
</g>
</svg>
